<svg width="124" height="146" viewBox="0 0 124 146" fill="none" xmlns="http://www.w3.org/2000/svg">
<rect x="10.5552" width="112.589" height="33" rx="16.5" fill="white"/>
<rect x="10.5552" y="112.003" width="112.589" height="33" rx="16.5" fill="white"/>
<path fill-rule="evenodd" clip-rule="evenodd" d="M24 0C10.7452 0 0 10.7452 0 24V121C0 134.255 10.7452 145 24 145H63C76.2548 145 87 134.255 87 121V112H71.5C49.6848 112 32 94.3152 32 72.5C32 50.6848 49.6848 33 71.5 33H87V24C87 10.7452 76.2548 0 63 0H24Z" fill="white"/>
<rect x="87.3731" y="50.9235" width="12.9008" height="49.2578" fill="white"/>
<rect x="104.079" y="50.9324" width="12.9008" height="49.2578" fill="white"/>
<rect x="73.8858" y="70.8612" width="9.96884" height="29.3201" fill="white"/>
<path fill-rule="evenodd" clip-rule="evenodd" d="M66.849 70.8612C58.7525 70.8612 52.189 77.4247 52.189 85.5213C52.189 93.6178 58.7525 100.181 66.849 100.181C74.9456 100.181 81.5091 93.6178 81.5091 85.5213C81.5091 77.4247 74.9456 70.8612 66.849 70.8612ZM66.849 78.4844C62.9627 78.4844 59.8122 81.6349 59.8122 85.5212C59.8122 89.4075 62.9627 92.558 66.849 92.558C70.7353 92.558 73.8858 89.4075 73.8858 85.5212C73.8858 81.6349 70.7353 78.4844 66.849 78.4844Z" fill="white"/>
</svg>
