<svg width="91" height="91" viewBox="0 0 91 91" fill="none" xmlns="http://www.w3.org/2000/svg">
<rect width="90.0901" height="90.0901" rx="32" fill="#414242"/>
<rect x="22.5225" y="18.7686" width="45.045" height="45.5455" rx="14" fill="white"/>
<rect x="25.7397" y="22.022" width="38.61" height="45.5455" rx="14" fill="#414242"/>
<rect x="22.5225" y="48.373" width="11.2613" height="18.2182" rx="2" fill="white"/>
<rect x="22.5225" y="41.5415" width="3.2175" height="21.1461" fill="white"/>
<rect x="24.7744" y="48.373" width="4.5045" height="2.27728" fill="white"/>
<rect x="56.3062" y="48.373" width="11.2613" height="18.2182" rx="2" fill="white"/>
<rect x="64.3501" y="41.5415" width="3.2175" height="21.1461" fill="white"/>
<rect x="62.7412" y="48.373" width="4.5045" height="2.27728" fill="white"/>
<path d="M69.5066 67.0562L22.0374 19.5869C21.0845 18.634 19.5395 18.634 18.5867 19.5869C17.6338 20.5398 17.6338 22.0847 18.5867 23.0376L66.0559 70.5068C67.0088 71.4597 68.5537 71.4597 69.5066 70.5068C70.4595 69.554 70.4595 68.009 69.5066 67.0562Z" fill="white" stroke="#414242" stroke-width="1.61"/>
</svg>
