<svg width="100" height="69" viewBox="0 0 100 69" fill="none" xmlns="http://www.w3.org/2000/svg">
<rect width="69" height="69" rx="34.5" fill="#618FE8"/>
<rect x="17.5921" y="10.3597" width="37.5297" height="11.1416" rx="5.57082" fill="white"/>
<rect x="17.5921" y="47.694" width="37.5297" height="11.1416" rx="5.57082" fill="white"/>
<rect x="17.5921" y="53.3625" width="37.5297" height="21.1105" transform="rotate(-90 17.5921 53.3625)" fill="white"/>
<rect x="14.0737" y="10.3597" width="19.7422" height="48.4759" rx="9.87111" fill="white"/>
<rect x="24.6289" y="21.5013" width="30.4929" height="26.1926" rx="13.0963" fill="#618FE8"/>
<rect x="79.4537" y="25" width="8.96637" height="34.2352" fill="white"/>
<rect x="90.8655" y="25" width="8.96637" height="34.2352" fill="white"/>
<rect x="55" y="38.8572" width="20.3781" height="20.3781" rx="10.1891" fill="white"/>
<rect x="70.0798" y="38.8572" width="6.92856" height="20.3781" fill="white"/>
<rect x="60" y="44" width="10" height="10" rx="5" fill="#040A20"/>
<path d="M62.6842 53.4314C61.5599 52.8438 60.7009 51.8508 60.2814 50.6536C59.8618 49.4564 59.913 48.1445 60.4246 46.9836C60.9362 45.8228 61.8699 44.8998 63.0366 44.4016C64.2033 43.9035 65.5157 43.8674 66.708 44.3008L65 49L62.6842 53.4314Z" fill="#618FE8"/>
</svg>
