<svg width="91" height="91" viewBox="0 0 91 91" fill="none" xmlns="http://www.w3.org/2000/svg">
<rect width="90.0901" height="90.0901" rx="32" fill="#414242"/>
<path d="M50.3173 46.7198C50.7579 45.836 50.9913 44.8635 50.9998 43.876V35.751C50.9818 34.1458 50.3705 32.6041 49.2836 31.4227C48.1967 30.2414 46.7111 29.504 45.113 29.3527C43.5149 29.2014 41.9173 29.6467 40.6279 30.6031C39.3386 31.5594 38.4488 32.959 38.1298 34.5323L50.3173 46.7198ZM55.8748 43.876C55.8748 43.445 55.7036 43.0317 55.3989 42.727C55.0941 42.4222 54.6808 42.251 54.2498 42.251C53.8188 42.251 53.4055 42.4222 53.1008 42.727C52.796 43.0317 52.6248 43.445 52.6248 43.876C52.6201 45.2957 52.2327 46.6879 51.5036 47.906L53.8923 50.376C55.2 48.462 55.8917 46.1941 55.8748 43.876ZM44.4998 50.376H44.7598L37.9998 43.5998V43.876C37.9998 45.5999 38.6846 47.2532 39.9036 48.4722C41.1226 49.6912 42.7759 50.376 44.4998 50.376ZM58.6536 57.3473L32.6536 31.3473C32.5021 31.1958 32.3222 31.0756 32.1242 30.9936C31.9263 30.9116 31.7141 30.8694 31.4998 30.8694C31.2855 30.8694 31.0734 30.9116 30.8754 30.9936C30.6774 31.0756 30.4976 31.1958 30.3461 31.3473C30.0401 31.6533 29.8682 32.0683 29.8682 32.501C29.8682 32.9338 30.0401 33.3488 30.3461 33.6548L56.3461 59.6548C56.4971 59.8071 56.6768 59.928 56.8749 60.0105C57.0729 60.093 57.2853 60.1354 57.4998 60.1354C57.7143 60.1354 57.9267 60.093 58.1247 60.0105C58.3228 59.928 58.5025 59.8071 58.6536 59.6548C58.8059 59.5037 58.9268 59.324 59.0093 59.1259C59.0918 58.9279 59.1342 58.7155 59.1342 58.501C59.1342 58.2865 59.0918 58.0741 59.0093 57.8761C58.9268 57.6781 58.8059 57.4983 58.6536 57.3473Z" fill="white"/>
<path d="M49.3735 58.501H46.1235V55.121C47.0431 54.993 47.9436 54.7528 48.8048 54.406L46.2048 51.806C45.6455 51.9367 45.0729 52.0022 44.4985 52.001C42.3437 52.001 40.277 51.145 38.7533 49.6212C37.2296 48.0975 36.3735 46.0309 36.3735 43.876C36.3735 43.445 36.2023 43.0317 35.8976 42.7269C35.5928 42.4222 35.1795 42.251 34.7485 42.251C34.3176 42.251 33.9042 42.4222 33.5995 42.7269C33.2947 43.0317 33.1235 43.445 33.1235 43.876C33.1267 46.609 34.1138 49.2495 35.9042 51.3144C37.6946 53.3793 40.1686 54.7305 42.8735 55.121V58.501H39.6235C39.1926 58.501 38.7792 58.6722 38.4745 58.9769C38.1697 59.2817 37.9985 59.695 37.9985 60.126C37.9985 60.557 38.1697 60.9703 38.4745 61.275C38.7792 61.5798 39.1926 61.751 39.6235 61.751H49.3735C49.8045 61.751 50.2178 61.5798 50.5226 61.275C50.8273 60.9703 50.9985 60.557 50.9985 60.126C50.9985 59.695 50.8273 59.2817 50.5226 58.9769C50.2178 58.6722 49.8045 58.501 49.3735 58.501Z" fill="white"/>
</svg>
