<svg width="90" height="90" viewBox="0 0 90 90" fill="none" xmlns="http://www.w3.org/2000/svg">
<rect width="90" height="90" rx="32" fill="#414242"/>
<path d="M44.5 28C42.6582 28 40.8919 28.7463 39.5895 30.0747C38.2872 31.403 37.5556 33.2047 37.5556 35.0833V45C37.5556 46.8786 38.2872 48.6803 39.5895 50.0087C40.8919 51.3371 42.6582 52.0833 44.5 52.0833C46.3418 52.0833 48.1081 51.3371 49.4105 50.0087C50.7128 48.6803 51.4444 46.8786 51.4444 45V35.0833C51.4444 33.2047 50.7128 31.403 49.4105 30.0747C48.1081 28.7463 46.3418 28 44.5 28V28ZM33.3889 43.5833C33.7572 43.5833 34.1105 43.7326 34.371 43.9983C34.6314 44.2639 34.7778 44.6243 34.7778 45C34.7778 47.6301 35.8021 50.1524 37.6254 52.0121C39.4486 53.8719 41.9215 54.9167 44.5 54.9167C47.0785 54.9167 49.5514 53.8719 51.3746 52.0121C53.1979 50.1524 54.2222 47.6301 54.2222 45C54.2222 44.6243 54.3685 44.2639 54.629 43.9983C54.8895 43.7326 55.2428 43.5833 55.6111 43.5833C55.9795 43.5833 56.3327 43.7326 56.5932 43.9983C56.8537 44.2639 57 44.6243 57 45C57.0006 48.1366 55.8676 51.1634 53.8177 53.5015C51.7679 55.8396 48.945 57.325 45.8889 57.6735V60.5833C45.8889 60.9591 45.7426 61.3194 45.4821 61.5851C45.2216 61.8507 44.8684 62 44.5 62C44.1316 62 43.7784 61.8507 43.5179 61.5851C43.2574 61.3194 43.1111 60.9591 43.1111 60.5833V57.6735C40.055 57.325 37.2321 55.8396 35.1822 53.5015C33.1324 51.1634 31.9994 48.1366 32 45C32 44.6243 32.1463 44.2639 32.4068 43.9983C32.6673 43.7326 33.0205 43.5833 33.3889 43.5833Z" fill="white"/>
</svg>
