<svg width="24" height="31" viewBox="0 0 24 31" fill="none" xmlns="http://www.w3.org/2000/svg">
<path d="M23.247 19.3595L21.7002 16.7865C21.3754 16.213 21.0815 15.128 21.0815 14.4925V10.571C21.0815 6.9285 18.947 3.782 15.8689 2.3095C15.0646 0.8835 13.5797 0 11.8782 0C10.1922 0 8.67647 0.9145 7.87214 2.356C4.85593 3.8595 2.76779 6.975 2.76779 10.571V14.4925C2.76779 15.128 2.4739 16.213 2.14908 16.771L0.586839 19.3595C-0.0318701 20.398 -0.171079 21.545 0.215614 22.599C0.58684 23.6375 1.4685 24.4435 2.61311 24.831C5.61385 25.854 8.76927 26.35 11.9246 26.35C15.08 26.35 18.2355 25.854 21.2362 24.8465C22.3189 24.49 23.1542 23.6685 23.5564 22.599C23.9585 21.5295 23.8503 20.3515 23.247 19.3595Z" fill="white"/>
<path d="M16.2708 27.9155C15.6211 29.7135 13.9042 31 11.8934 31C10.6715 31 9.46498 30.504 8.61424 29.6205C8.11927 29.1555 7.74804 28.5355 7.53149 27.9C7.73257 27.931 7.93365 27.9465 8.1502 27.9775C8.50596 28.024 8.8772 28.0705 9.24843 28.1015C10.1301 28.179 11.0272 28.2255 11.9243 28.2255C12.806 28.2255 13.6877 28.179 14.5539 28.1015C14.8787 28.0705 15.2035 28.055 15.5129 28.0085C15.7603 27.9775 16.0078 27.9465 16.2708 27.9155Z" fill="white"/>
</svg>
