<svg width="98" height="97" viewBox="0 0 98 97" fill="none" xmlns="http://www.w3.org/2000/svg">
<g filter="url(#filter0_b_116_54)">
<rect x="0.468964" width="96.7391" height="96.7391" rx="15" fill="#FB0242"/>
</g>
<path d="M26.226 53.0614C25.7328 52.6217 25.3356 52.072 25.0753 51.4246C24.8151 50.7772 24.6507 50.0931 24.6096 49.348C24.5411 48.0899 24.7466 46.9539 25.2397 45.9033C25.7191 44.8651 26.4314 43.9123 27.3903 43.0572C28.7875 41.8113 30.6094 40.773 32.8559 39.9668C35.1024 39.1606 37.5818 38.562 40.2803 38.1834C43.0063 37.8047 45.7733 37.6093 48.6088 37.597C51.4444 37.6093 54.2114 37.8047 56.9099 38.1834C59.5948 38.5743 62.0605 39.1606 64.2659 39.9546C66.485 40.7608 68.3068 41.7991 69.7315 43.0694C70.6629 43.9001 71.3889 44.8406 71.8821 45.8667C72.3889 46.905 72.6355 48.0532 72.5944 49.3114C72.5807 50.8627 72.0465 52.0964 71.0328 53.0004C70.6492 53.3424 70.1835 53.6111 69.6767 53.7699C69.1561 53.9409 68.5945 54.002 67.9918 53.9043L60.3345 52.7438C59.7455 52.6583 59.2523 52.5362 58.8277 52.3774C58.4167 52.2308 58.0606 52.0354 57.8003 51.8033C57.4716 51.5101 57.2387 51.1314 57.1154 50.6795C56.9784 50.2397 56.9099 49.7145 56.9099 49.1281L56.8688 47.2348C56.8688 46.9661 56.7593 46.7462 56.5401 46.5508C56.4305 46.453 56.3209 46.3797 56.1839 46.3064C56.0333 46.2454 55.91 46.2087 55.8004 46.1599C55.1018 45.9766 54.0881 45.8301 52.7731 45.7323C51.4444 45.6468 50.0608 45.5858 48.6225 45.5735C47.1568 45.5858 45.7733 45.6224 44.4309 45.7201C43.1158 45.8178 42.1159 45.9766 41.4036 46.1721C41.3077 46.2087 41.1844 46.2454 41.0474 46.2942C40.8967 46.3553 40.7735 46.4408 40.6502 46.5508C40.4173 46.7584 40.3214 46.9905 40.3214 47.2592L40.3077 49.1037C40.3077 49.7145 40.2392 50.2397 40.0885 50.6673C39.9653 51.1192 39.7461 51.4857 39.4036 51.7911C39.1434 52.0231 38.8146 52.2186 38.39 52.3774C37.9653 52.5362 37.4722 52.6583 36.8969 52.7561L29.1437 53.9287C28.541 54.0264 28.0067 53.9898 27.5136 53.8188C27.0342 53.6355 26.6095 53.4035 26.226 53.0614Z" fill="white"/>
<defs>
<filter id="filter0_b_116_54" x="-149.531" y="-150" width="396.739" height="396.739" filterUnits="userSpaceOnUse" color-interpolation-filters="sRGB">
<feFlood flood-opacity="0" result="BackgroundImageFix"/>
<feGaussianBlur in="BackgroundImage" stdDeviation="75"/>
<feComposite in2="SourceAlpha" operator="in" result="effect1_backgroundBlur_116_54"/>
<feBlend mode="normal" in="SourceGraphic" in2="effect1_backgroundBlur_116_54" result="shape"/>
</filter>
</defs>
</svg>
