<svg width="72" height="72" viewBox="0 0 72 72" fill="none" xmlns="http://www.w3.org/2000/svg">
<rect width="72" height="72" rx="36" fill="#5E647C"/>
<g filter="url(#filter0_b_257_2)">
<rect x="10" y="10" width="51" height="51" rx="25.4878" fill="#629C54"/>
</g>
<path d="M43.731 50.099C43.5497 50.5369 43.2757 50.9339 42.9082 51.259C42.5406 51.5842 42.1284 51.8519 41.6495 52.0489C40.8406 52.3808 40.0525 52.4972 39.2582 52.3969C38.4749 52.3033 37.6971 52.0305 36.9301 51.5665C35.8124 50.8904 34.7388 49.876 33.7253 48.5177C32.7119 47.1594 31.784 45.5944 30.9527 43.8292C30.1155 42.0453 29.3894 40.1916 28.7684 38.2495C28.1633 36.3018 27.6931 34.3596 27.3576 32.4229C27.033 30.4928 26.8838 28.6688 26.9268 26.9762C26.9748 25.2715 27.2606 23.7867 27.7843 22.5218C28.1267 21.6948 28.5854 20.9837 29.1505 20.4131C29.7207 19.8303 30.419 19.401 31.2516 19.1442C32.2701 18.8022 33.1932 18.8892 34.0041 19.3797C34.311 19.5653 34.5876 19.8239 34.8011 20.1356C35.0256 20.4539 35.187 20.8253 35.2533 21.2608L36.1491 26.7758C36.2205 27.1992 36.2471 27.5651 36.235 27.8924C36.2278 28.2074 36.1769 28.496 36.0812 28.7271C35.9604 29.019 35.7628 29.2645 35.4936 29.4514C35.2353 29.645 34.9063 29.8109 34.5225 29.9437L33.2919 30.4008C33.116 30.4617 32.9957 30.5867 32.9152 30.7813C32.8749 30.8786 32.8506 30.9703 32.8322 31.0809V31.0809C32.8198 31.2774 32.8232 31.4772 32.8447 31.6762C32.8974 32.1645 33.0128 32.7915 33.1938 33.5504C33.4251 34.4812 33.6842 35.444 33.9871 36.4333C34.312 37.4359 34.6351 38.3765 34.9893 39.2751C35.3376 40.155 35.6577 40.8049 35.9397 41.2492C35.9844 41.3067 36.035 41.3829 36.0966 41.4658C36.1692 41.5553 36.2518 41.6205 36.3504 41.6802C36.5367 41.7929 36.7094 41.8061 36.8853 41.7452L38.0957 41.3368C38.4956 41.1985 38.8542 41.1265 39.1667 41.133C39.4892 41.1151 39.7765 41.1825 40.0504 41.3482C40.2586 41.4741 40.4577 41.6554 40.6534 41.9107C40.8492 42.1659 41.0357 42.4765 41.2241 42.849L43.6679 47.9013C43.8622 48.2926 43.9537 48.6673 43.9484 49.0443C43.9321 49.4146 43.872 49.7585 43.731 50.099Z" fill="white"/>
<defs>
<filter id="filter0_b_257_2" x="-140" y="-140" width="351" height="351" filterUnits="userSpaceOnUse" color-interpolation-filters="sRGB">
<feFlood flood-opacity="0" result="BackgroundImageFix"/>
<feGaussianBlur in="BackgroundImage" stdDeviation="75"/>
<feComposite in2="SourceAlpha" operator="in" result="effect1_backgroundBlur_257_2"/>
<feBlend mode="normal" in="SourceGraphic" in2="effect1_backgroundBlur_257_2" result="shape"/>
</filter>
</defs>
</svg>
